<mxfile host="65bd71144e">
    <diagram id="6TcPL_EzFMyiEL8BHNqk" name="Page-1">
        <mxGraphModel dx="463" dy="143" grid="1" gridSize="10" guides="1" tooltips="1" connect="1" arrows="1" fold="1" page="1" pageScale="1" pageWidth="850" pageHeight="1100" math="0" shadow="0">
            <root>
                <mxCell id="0"/>
                <mxCell id="1" parent="0"/>
                <mxCell id="hDovkQ81fUDKO01cRCzx-9" value="april_grid" style="shape=umlLifeline;perimeter=lifelinePerimeter;whiteSpace=wrap;html=1;container=1;collapsible=0;recursiveResize=0;outlineConnect=0;" vertex="1" parent="1">
                    <mxGeometry x="120" y="80" width="100" height="300" as="geometry"/>
                </mxCell>
                <mxCell id="hDovkQ81fUDKO01cRCzx-10" value="" style="shape=umlDestroy;dashed=0;" vertex="1" parent="hDovkQ81fUDKO01cRCzx-9">
                    <mxGeometry x="30" y="280" width="40" height="40" as="geometry"/>
                </mxCell>
                <mxCell id="_m5JJ1gMDbVCV7416WM--7" value="" style="html=1;points=[];perimeter=orthogonalPerimeter;" vertex="1" parent="hDovkQ81fUDKO01cRCzx-9">
                    <mxGeometry x="40" y="100" width="10" height="40" as="geometry"/>
                </mxCell>
                <mxCell id="_m5JJ1gMDbVCV7416WM--8" value="draw()" style="edgeStyle=orthogonalEdgeStyle;html=1;align=left;spacingLeft=2;endArrow=block;rounded=0;entryX=1;entryY=0;" edge="1" target="_m5JJ1gMDbVCV7416WM--7" parent="hDovkQ81fUDKO01cRCzx-9">
                    <mxGeometry y="5" relative="1" as="geometry">
                        <mxPoint x="50" y="80" as="sourcePoint"/>
                        <Array as="points">
                            <mxPoint x="75" y="80"/>
                            <mxPoint x="75" y="100"/>
                        </Array>
                        <mxPoint as="offset"/>
                    </mxGeometry>
                </mxCell>
                <mxCell id="_m5JJ1gMDbVCV7416WM--1" value="" style="rounded=0;dashed=0;container=0;collapsible=0;recursiveResize=0;" vertex="1" parent="1">
                    <mxGeometry x="250" y="180" width="110" height="160" as="geometry"/>
                </mxCell>
                <mxCell id="_m5JJ1gMDbVCV7416WM--2" value="LifeLine1" style="rounded=0;dashed=0;" vertex="1" parent="_m5JJ1gMDbVCV7416WM--1">
                    <mxGeometry x="30" y="10" width="100" height="30" as="geometry"/>
                </mxCell>
                <mxCell id="_m5JJ1gMDbVCV7416WM--3" value="" style="rounded=0;dashed=0;" vertex="1" parent="_m5JJ1gMDbVCV7416WM--1">
                    <mxGeometry x="75" y="60" width="10" height="60" as="geometry"/>
                </mxCell>
                <mxCell id="_m5JJ1gMDbVCV7416WM--4" value="" style="html=1;verticalAlign=bottom;startArrow=none;endArrow=none;dashed=1;" edge="1" parent="_m5JJ1gMDbVCV7416WM--1" source="_m5JJ1gMDbVCV7416WM--3" target="_m5JJ1gMDbVCV7416WM--2">
                    <mxGeometry relative="1" as="geometry"/>
                </mxCell>
                <mxCell id="_m5JJ1gMDbVCV7416WM--5" value="" style="html=1;verticalAlign=bottom;startArrow=none;endArrow=none;dashed=1;" edge="1" parent="_m5JJ1gMDbVCV7416WM--1" target="_m5JJ1gMDbVCV7416WM--3">
                    <mxGeometry relative="1" as="geometry">
                        <mxPoint x="80" y="150" as="sourcePoint"/>
                    </mxGeometry>
                </mxCell>
                <mxCell id="_m5JJ1gMDbVCV7416WM--6" value="" style="html=1;verticalAlign=bottom;startArrow=none;endArrow=open;endFill=0;" edge="1" parent="_m5JJ1gMDbVCV7416WM--1">
                    <mxGeometry relative="1" as="geometry">
                        <mxPoint y="60" as="sourcePoint"/>
                        <mxPoint x="75" y="60" as="targetPoint"/>
                    </mxGeometry>
                </mxCell>
                <mxCell id="_m5JJ1gMDbVCV7416WM--9" style="edgeStyle=orthogonalEdgeStyle;html=1;entryX=0.001;entryY=0.374;entryDx=0;entryDy=0;entryPerimeter=0;endArrow=none;endFill=0;" edge="1" parent="1" source="_m5JJ1gMDbVCV7416WM--7" target="_m5JJ1gMDbVCV7416WM--1">
                    <mxGeometry relative="1" as="geometry"/>
                </mxCell>
            </root>
        </mxGraphModel>
    </diagram>
    <diagram id="Vpa290mEQZgqXZkdQ85W" name="class diagram">
        <mxGraphModel dx="793" dy="246" grid="1" gridSize="10" guides="1" tooltips="1" connect="1" arrows="1" fold="1" page="1" pageScale="1" pageWidth="850" pageHeight="1100" math="0" shadow="0">
            <root>
                <mxCell id="uEoAcisM7GpEx017tqVl-0"/>
                <mxCell id="uEoAcisM7GpEx017tqVl-1" parent="uEoAcisM7GpEx017tqVl-0"/>
                <mxCell id="uEoAcisM7GpEx017tqVl-2" value="class :calib_core" style="swimlane;fontStyle=0;childLayout=stackLayout;horizontal=1;startSize=30;horizontalStack=0;resizeParent=1;resizeParentMax=0;resizeLast=0;collapsible=1;marginBottom=0;" vertex="1" parent="uEoAcisM7GpEx017tqVl-1">
                    <mxGeometry x="210" y="30" width="140" height="120" as="geometry"/>
                </mxCell>
                <mxCell id="uEoAcisM7GpEx017tqVl-3" value="+create_pt+cloud()" style="text;strokeColor=none;fillColor=none;align=left;verticalAlign=middle;spacingLeft=4;spacingRight=4;overflow=hidden;points=[[0,0.5],[1,0.5]];portConstraint=eastwest;rotatable=0;" vertex="1" parent="uEoAcisM7GpEx017tqVl-2">
                    <mxGeometry y="30" width="140" height="30" as="geometry"/>
                </mxCell>
                <mxCell id="uEoAcisM7GpEx017tqVl-4" value="calibrate()" style="text;strokeColor=none;fillColor=none;align=left;verticalAlign=middle;spacingLeft=4;spacingRight=4;overflow=hidden;points=[[0,0.5],[1,0.5]];portConstraint=eastwest;rotatable=0;" vertex="1" parent="uEoAcisM7GpEx017tqVl-2">
                    <mxGeometry y="60" width="140" height="30" as="geometry"/>
                </mxCell>
                <mxCell id="uEoAcisM7GpEx017tqVl-5" value="+generate_cam()" style="text;strokeColor=none;fillColor=none;align=left;verticalAlign=middle;spacingLeft=4;spacingRight=4;overflow=hidden;points=[[0,0.5],[1,0.5]];portConstraint=eastwest;rotatable=0;" vertex="1" parent="uEoAcisM7GpEx017tqVl-2">
                    <mxGeometry y="90" width="140" height="30" as="geometry"/>
                </mxCell>
                <mxCell id="uEoAcisM7GpEx017tqVl-6" value="class :calib_mono" style="swimlane;fontStyle=0;childLayout=stackLayout;horizontal=1;startSize=30;horizontalStack=0;resizeParent=1;resizeParentMax=0;resizeLast=0;collapsible=1;marginBottom=0;" vertex="1" parent="uEoAcisM7GpEx017tqVl-1">
                    <mxGeometry x="90" y="250" width="140" height="120" as="geometry"/>
                </mxCell>
                <mxCell id="uEoAcisM7GpEx017tqVl-7" value="+create_ptcloud()" style="text;strokeColor=none;fillColor=none;align=left;verticalAlign=middle;spacingLeft=4;spacingRight=4;overflow=hidden;points=[[0,0.5],[1,0.5]];portConstraint=eastwest;rotatable=0;" vertex="1" parent="uEoAcisM7GpEx017tqVl-6">
                    <mxGeometry y="30" width="140" height="30" as="geometry"/>
                </mxCell>
                <mxCell id="uEoAcisM7GpEx017tqVl-8" value="calibrate()" style="text;strokeColor=none;fillColor=none;align=left;verticalAlign=middle;spacingLeft=4;spacingRight=4;overflow=hidden;points=[[0,0.5],[1,0.5]];portConstraint=eastwest;rotatable=0;" vertex="1" parent="uEoAcisM7GpEx017tqVl-6">
                    <mxGeometry y="60" width="140" height="30" as="geometry"/>
                </mxCell>
                <mxCell id="uEoAcisM7GpEx017tqVl-9" value="+generate_cam()" style="text;strokeColor=none;fillColor=none;align=left;verticalAlign=middle;spacingLeft=4;spacingRight=4;overflow=hidden;points=[[0,0.5],[1,0.5]];portConstraint=eastwest;rotatable=0;" vertex="1" parent="uEoAcisM7GpEx017tqVl-6">
                    <mxGeometry y="90" width="140" height="30" as="geometry"/>
                </mxCell>
                <mxCell id="uEoAcisM7GpEx017tqVl-10" value="class :calib_setero" style="swimlane;fontStyle=0;childLayout=stackLayout;horizontal=1;startSize=30;horizontalStack=0;resizeParent=1;resizeParentMax=0;resizeLast=0;collapsible=1;marginBottom=0;" vertex="1" parent="uEoAcisM7GpEx017tqVl-1">
                    <mxGeometry x="320" y="250" width="143" height="120" as="geometry"/>
                </mxCell>
                <mxCell id="uEoAcisM7GpEx017tqVl-11" value="+create_pt_cloud()" style="text;strokeColor=none;fillColor=none;align=left;verticalAlign=middle;spacingLeft=4;spacingRight=4;overflow=hidden;points=[[0,0.5],[1,0.5]];portConstraint=eastwest;rotatable=0;" vertex="1" parent="uEoAcisM7GpEx017tqVl-10">
                    <mxGeometry y="30" width="143" height="30" as="geometry"/>
                </mxCell>
                <mxCell id="uEoAcisM7GpEx017tqVl-12" value="calibrate()" style="text;strokeColor=none;fillColor=none;align=left;verticalAlign=middle;spacingLeft=4;spacingRight=4;overflow=hidden;points=[[0,0.5],[1,0.5]];portConstraint=eastwest;rotatable=0;" vertex="1" parent="uEoAcisM7GpEx017tqVl-10">
                    <mxGeometry y="60" width="143" height="30" as="geometry"/>
                </mxCell>
                <mxCell id="uEoAcisM7GpEx017tqVl-13" value="+generate_cam()" style="text;strokeColor=none;fillColor=none;align=left;verticalAlign=middle;spacingLeft=4;spacingRight=4;overflow=hidden;points=[[0,0.5],[1,0.5]];portConstraint=eastwest;rotatable=0;" vertex="1" parent="uEoAcisM7GpEx017tqVl-10">
                    <mxGeometry y="90" width="143" height="30" as="geometry"/>
                </mxCell>
                <mxCell id="uEoAcisM7GpEx017tqVl-14" value="" style="endArrow=block;endFill=0;endSize=12;html=1;exitX=0.5;exitY=0;exitDx=0;exitDy=0;entryX=0.494;entryY=1.162;entryDx=0;entryDy=0;entryPerimeter=0;" edge="1" parent="uEoAcisM7GpEx017tqVl-1">
                    <mxGeometry width="160" relative="1" as="geometry">
                        <mxPoint x="389.5" y="247" as="sourcePoint"/>
                        <mxPoint x="277.1600000000001" y="151.86" as="targetPoint"/>
                        <Array as="points">
                            <mxPoint x="390" y="190"/>
                            <mxPoint x="277" y="190"/>
                        </Array>
                    </mxGeometry>
                </mxCell>
                <mxCell id="uEoAcisM7GpEx017tqVl-15" value="" style="endArrow=block;endFill=0;endSize=12;html=1;exitX=0.5;exitY=0;exitDx=0;exitDy=0;" edge="1" parent="uEoAcisM7GpEx017tqVl-1" source="uEoAcisM7GpEx017tqVl-6">
                    <mxGeometry width="160" relative="1" as="geometry">
                        <mxPoint x="60" y="170" as="sourcePoint"/>
                        <mxPoint x="277" y="153" as="targetPoint"/>
                        <Array as="points">
                            <mxPoint x="160" y="190"/>
                            <mxPoint x="220" y="190"/>
                            <mxPoint x="280" y="190"/>
                            <mxPoint x="277" y="170"/>
                        </Array>
                    </mxGeometry>
                </mxCell>
                <mxCell id="uEoAcisM7GpEx017tqVl-30" value="" style="group;rotation=-180;" vertex="1" connectable="0" parent="uEoAcisM7GpEx017tqVl-1">
                    <mxGeometry x="84" y="492" width="373" height="340" as="geometry"/>
                </mxCell>
                <mxCell id="uEoAcisM7GpEx017tqVl-16" value="class :cam_core" style="swimlane;fontStyle=0;childLayout=stackLayout;horizontal=1;startSize=30;horizontalStack=0;resizeParent=1;resizeParentMax=0;resizeLast=0;collapsible=1;marginBottom=0;rotation=0;" vertex="1" parent="uEoAcisM7GpEx017tqVl-30">
                    <mxGeometry x="112" y="221" width="140" height="150" as="geometry"/>
                </mxCell>
                <mxCell id="uEoAcisM7GpEx017tqVl-17" value="+get_image_pt_cloud()" style="text;strokeColor=none;fillColor=none;align=left;verticalAlign=middle;spacingLeft=4;spacingRight=4;overflow=hidden;points=[[0,0.5],[1,0.5]];portConstraint=eastwest;rotatable=0;rotation=0;" vertex="1" parent="uEoAcisM7GpEx017tqVl-16">
                    <mxGeometry y="30" width="140" height="30" as="geometry"/>
                </mxCell>
                <mxCell id="uEoAcisM7GpEx017tqVl-18" value="+get_cam_matrix()" style="text;strokeColor=none;fillColor=none;align=left;verticalAlign=middle;spacingLeft=4;spacingRight=4;overflow=hidden;points=[[0,0.5],[1,0.5]];portConstraint=eastwest;rotatable=0;rotation=0;" vertex="1" parent="uEoAcisM7GpEx017tqVl-16">
                    <mxGeometry y="60" width="140" height="30" as="geometry"/>
                </mxCell>
                <mxCell id="uEoAcisM7GpEx017tqVl-19" value="+get_distortion()" style="text;strokeColor=none;fillColor=none;align=left;verticalAlign=middle;spacingLeft=4;spacingRight=4;overflow=hidden;points=[[0,0.5],[1,0.5]];portConstraint=eastwest;rotatable=0;rotation=0;" vertex="1" parent="uEoAcisM7GpEx017tqVl-16">
                    <mxGeometry y="90" width="140" height="30" as="geometry"/>
                </mxCell>
                <mxCell id="uEoAcisM7GpEx017tqVl-38" value="+get_distortion()" style="text;strokeColor=none;fillColor=none;align=left;verticalAlign=middle;spacingLeft=4;spacingRight=4;overflow=hidden;points=[[0,0.5],[1,0.5]];portConstraint=eastwest;rotatable=0;rotation=0;" vertex="1" parent="uEoAcisM7GpEx017tqVl-16">
                    <mxGeometry y="120" width="140" height="30" as="geometry"/>
                </mxCell>
                <mxCell id="uEoAcisM7GpEx017tqVl-20" value="class :cam_stereo" style="swimlane;fontStyle=0;childLayout=stackLayout;horizontal=1;startSize=30;horizontalStack=0;resizeParent=1;resizeParentMax=0;resizeLast=0;collapsible=1;marginBottom=0;rotation=0;" vertex="1" parent="uEoAcisM7GpEx017tqVl-30">
                    <mxGeometry x="233" width="140" height="150" as="geometry"/>
                </mxCell>
                <mxCell id="uEoAcisM7GpEx017tqVl-21" value="+get_image_pt_cloud()" style="text;strokeColor=none;fillColor=none;align=left;verticalAlign=middle;spacingLeft=4;spacingRight=4;overflow=hidden;points=[[0,0.5],[1,0.5]];portConstraint=eastwest;rotatable=0;rotation=0;" vertex="1" parent="uEoAcisM7GpEx017tqVl-20">
                    <mxGeometry y="30" width="140" height="30" as="geometry"/>
                </mxCell>
                <mxCell id="uEoAcisM7GpEx017tqVl-22" value="+get_cam_matrix()" style="text;strokeColor=none;fillColor=none;align=left;verticalAlign=middle;spacingLeft=4;spacingRight=4;overflow=hidden;points=[[0,0.5],[1,0.5]];portConstraint=eastwest;rotatable=0;rotation=0;" vertex="1" parent="uEoAcisM7GpEx017tqVl-20">
                    <mxGeometry y="60" width="140" height="30" as="geometry"/>
                </mxCell>
                <mxCell id="uEoAcisM7GpEx017tqVl-23" value="+get_distortion()" style="text;strokeColor=none;fillColor=none;align=left;verticalAlign=middle;spacingLeft=4;spacingRight=4;overflow=hidden;points=[[0,0.5],[1,0.5]];portConstraint=eastwest;rotatable=0;rotation=0;" vertex="1" parent="uEoAcisM7GpEx017tqVl-20">
                    <mxGeometry y="90" width="140" height="30" as="geometry"/>
                </mxCell>
                <mxCell id="uEoAcisM7GpEx017tqVl-37" value="+get_object_point()" style="text;strokeColor=none;fillColor=none;align=left;verticalAlign=middle;spacingLeft=4;spacingRight=4;overflow=hidden;points=[[0,0.5],[1,0.5]];portConstraint=eastwest;rotatable=0;rotation=0;" vertex="1" parent="uEoAcisM7GpEx017tqVl-20">
                    <mxGeometry y="120" width="140" height="30" as="geometry"/>
                </mxCell>
                <mxCell id="uEoAcisM7GpEx017tqVl-24" value="class :cam_mono" style="swimlane;fontStyle=0;childLayout=stackLayout;horizontal=1;startSize=30;horizontalStack=0;resizeParent=1;resizeParentMax=0;resizeLast=0;collapsible=1;marginBottom=0;rotation=0;" vertex="1" parent="uEoAcisM7GpEx017tqVl-30">
                    <mxGeometry width="143" height="150" as="geometry"/>
                </mxCell>
                <mxCell id="uEoAcisM7GpEx017tqVl-25" value="+get_image_pt_cloud()" style="text;strokeColor=none;fillColor=none;align=left;verticalAlign=middle;spacingLeft=4;spacingRight=4;overflow=hidden;points=[[0,0.5],[1,0.5]];portConstraint=eastwest;rotatable=0;rotation=0;" vertex="1" parent="uEoAcisM7GpEx017tqVl-24">
                    <mxGeometry y="30" width="143" height="30" as="geometry"/>
                </mxCell>
                <mxCell id="uEoAcisM7GpEx017tqVl-26" value="+get_cam_matrix()" style="text;strokeColor=none;fillColor=none;align=left;verticalAlign=middle;spacingLeft=4;spacingRight=4;overflow=hidden;points=[[0,0.5],[1,0.5]];portConstraint=eastwest;rotatable=0;rotation=0;" vertex="1" parent="uEoAcisM7GpEx017tqVl-24">
                    <mxGeometry y="60" width="143" height="30" as="geometry"/>
                </mxCell>
                <mxCell id="uEoAcisM7GpEx017tqVl-27" value="+get_distortion()" style="text;strokeColor=none;fillColor=none;align=left;verticalAlign=middle;spacingLeft=4;spacingRight=4;overflow=hidden;points=[[0,0.5],[1,0.5]];portConstraint=eastwest;rotatable=0;rotation=0;" vertex="1" parent="uEoAcisM7GpEx017tqVl-24">
                    <mxGeometry y="90" width="143" height="30" as="geometry"/>
                </mxCell>
                <mxCell id="uEoAcisM7GpEx017tqVl-36" value="+get_object_point()" style="text;strokeColor=none;fillColor=none;align=left;verticalAlign=middle;spacingLeft=4;spacingRight=4;overflow=hidden;points=[[0,0.5],[1,0.5]];portConstraint=eastwest;rotatable=0;rotation=0;" vertex="1" parent="uEoAcisM7GpEx017tqVl-24">
                    <mxGeometry y="120" width="143" height="30" as="geometry"/>
                </mxCell>
                <mxCell id="uEoAcisM7GpEx017tqVl-28" value="" style="endArrow=block;endFill=0;endSize=12;html=1;entryX=0.494;entryY=1.162;entryDx=0;entryDy=0;entryPerimeter=0;" edge="1" parent="uEoAcisM7GpEx017tqVl-30">
                    <mxGeometry width="160" relative="1" as="geometry">
                        <mxPoint x="73" y="148" as="sourcePoint"/>
                        <mxPoint x="186" y="219" as="targetPoint"/>
                        <Array as="points">
                            <mxPoint x="73" y="188"/>
                            <mxPoint x="186" y="188"/>
                        </Array>
                    </mxGeometry>
                </mxCell>
                <mxCell id="uEoAcisM7GpEx017tqVl-31" value="" style="endArrow=block;endFill=0;endSize=12;html=1;entryX=0.5;entryY=1;entryDx=0;entryDy=0;" edge="1" parent="uEoAcisM7GpEx017tqVl-30">
                    <mxGeometry width="160" relative="1" as="geometry">
                        <mxPoint x="328" y="148" as="sourcePoint"/>
                        <mxPoint x="186" y="220" as="targetPoint"/>
                        <Array as="points">
                            <mxPoint x="328" y="187"/>
                            <mxPoint x="186" y="187"/>
                        </Array>
                    </mxGeometry>
                </mxCell>
                <mxCell id="uEoAcisM7GpEx017tqVl-32" value="return" style="html=1;verticalAlign=bottom;endArrow=open;dashed=1;endSize=8;exitX=0.458;exitY=1.137;exitDx=0;exitDy=0;exitPerimeter=0;entryX=0.5;entryY=0;entryDx=0;entryDy=0;" edge="1" parent="uEoAcisM7GpEx017tqVl-1" source="uEoAcisM7GpEx017tqVl-9" target="uEoAcisM7GpEx017tqVl-24">
                    <mxGeometry relative="1" as="geometry">
                        <mxPoint x="450" y="510" as="sourcePoint"/>
                        <mxPoint x="370" y="510" as="targetPoint"/>
                    </mxGeometry>
                </mxCell>
                <mxCell id="uEoAcisM7GpEx017tqVl-33" value="return" style="html=1;verticalAlign=bottom;endArrow=open;dashed=1;endSize=8;entryX=0.5;entryY=0;entryDx=0;entryDy=0;" edge="1" parent="uEoAcisM7GpEx017tqVl-1" source="uEoAcisM7GpEx017tqVl-13">
                    <mxGeometry relative="1" as="geometry">
                        <mxPoint x="389.1199999999999" y="373.1099999999999" as="sourcePoint"/>
                        <mxPoint x="390.5" y="491" as="targetPoint"/>
                    </mxGeometry>
                </mxCell>
                <mxCell id="uEoAcisM7GpEx017tqVl-41" style="edgeStyle=orthogonalEdgeStyle;html=1;exitX=0.75;exitY=0;exitDx=0;exitDy=0;entryX=0;entryY=0.25;entryDx=0;entryDy=0;endArrow=diamond;endFill=0;" edge="1" parent="uEoAcisM7GpEx017tqVl-1" source="uEoAcisM7GpEx017tqVl-24" target="uEoAcisM7GpEx017tqVl-10">
                    <mxGeometry relative="1" as="geometry">
                        <Array as="points">
                            <mxPoint x="191" y="450"/>
                            <mxPoint x="270" y="450"/>
                            <mxPoint x="270" y="280"/>
                        </Array>
                    </mxGeometry>
                </mxCell>
                <mxCell id="uEoAcisM7GpEx017tqVl-42" value="2" style="text;html=1;align=center;verticalAlign=middle;resizable=0;points=[];autosize=1;strokeColor=none;fillColor=none;" vertex="1" parent="uEoAcisM7GpEx017tqVl-1">
                    <mxGeometry x="280" y="260" width="20" height="20" as="geometry"/>
                </mxCell>
                <mxCell id="uEoAcisM7GpEx017tqVl-43" value="class :runtime_container" style="swimlane;fontStyle=0;childLayout=stackLayout;horizontal=1;startSize=30;horizontalStack=0;resizeParent=1;resizeParentMax=0;resizeLast=0;collapsible=1;marginBottom=0;" vertex="1" parent="uEoAcisM7GpEx017tqVl-1">
                    <mxGeometry x="413" y="30" width="140" height="60" as="geometry"/>
                </mxCell>
                <mxCell id="uEoAcisM7GpEx017tqVl-44" value="+draw()" style="text;strokeColor=none;fillColor=none;align=left;verticalAlign=middle;spacingLeft=4;spacingRight=4;overflow=hidden;points=[[0,0.5],[1,0.5]];portConstraint=eastwest;rotatable=0;" vertex="1" parent="uEoAcisM7GpEx017tqVl-43">
                    <mxGeometry y="30" width="140" height="30" as="geometry"/>
                </mxCell>
                <mxCell id="uEoAcisM7GpEx017tqVl-47" style="edgeStyle=orthogonalEdgeStyle;html=1;exitX=0;exitY=0.5;exitDx=0;exitDy=0;entryX=1;entryY=0.5;entryDx=0;entryDy=0;endArrow=open;endFill=0;" edge="1" parent="uEoAcisM7GpEx017tqVl-1" source="uEoAcisM7GpEx017tqVl-44" target="uEoAcisM7GpEx017tqVl-3">
                    <mxGeometry relative="1" as="geometry"/>
                </mxCell>
                <mxCell id="uEoAcisM7GpEx017tqVl-48" value="main" style="swimlane;fontStyle=0;childLayout=stackLayout;horizontal=1;startSize=30;horizontalStack=0;resizeParent=1;resizeParentMax=0;resizeLast=0;collapsible=1;marginBottom=0;" vertex="1" parent="uEoAcisM7GpEx017tqVl-1">
                    <mxGeometry x="619" y="33" width="140" height="60" as="geometry"/>
                </mxCell>
                <mxCell id="uEoAcisM7GpEx017tqVl-51" style="edgeStyle=orthogonalEdgeStyle;html=1;exitX=1;exitY=0.5;exitDx=0;exitDy=0;entryX=0;entryY=0.5;entryDx=0;entryDy=0;endArrow=diamondThin;endFill=0;" edge="1" parent="uEoAcisM7GpEx017tqVl-1" source="uEoAcisM7GpEx017tqVl-44" target="uEoAcisM7GpEx017tqVl-48">
                    <mxGeometry relative="1" as="geometry"/>
                </mxCell>
                <mxCell id="uEoAcisM7GpEx017tqVl-52" value="2" style="text;html=1;align=center;verticalAlign=middle;resizable=0;points=[];autosize=1;strokeColor=none;fillColor=none;" vertex="1" parent="uEoAcisM7GpEx017tqVl-1">
                    <mxGeometry x="590" y="40" width="20" height="20" as="geometry"/>
                </mxCell>
                <mxCell id="xHT_mgxtSOHWz0-KlzXp-0" style="edgeStyle=orthogonalEdgeStyle;html=1;exitX=1;exitY=0.5;exitDx=0;exitDy=0;endArrow=diamondThin;endFill=0;entryX=0.189;entryY=1.012;entryDx=0;entryDy=0;entryPerimeter=0;" edge="1" parent="uEoAcisM7GpEx017tqVl-1" source="uEoAcisM7GpEx017tqVl-26" target="uEoAcisM7GpEx017tqVl-44">
                    <mxGeometry relative="1" as="geometry">
                        <mxPoint x="440" y="110" as="targetPoint"/>
                        <Array as="points">
                            <mxPoint x="300" y="567"/>
                            <mxPoint x="300" y="450"/>
                            <mxPoint x="510" y="450"/>
                            <mxPoint x="510" y="120"/>
                            <mxPoint x="440" y="120"/>
                        </Array>
                    </mxGeometry>
                </mxCell>
            </root>
        </mxGraphModel>
    </diagram>
</mxfile>